<svg xmlns="http://www.w3.org/2000/svg" viewBox="0 0 402.66 126.24"><defs><style>.cls-1{fill:#212121;}.cls-2{isolation:isolate;}.cls-3{fill:none;stroke:#212121;stroke-miterlimit:10;}</style></defs><title>Asset 3</title><g id="Layer_2" data-name="Layer 2"><g id="Layer_1-2" data-name="Layer 1"><path class="cls-1" d="M30.63,95.73a31.29,31.29,0,0,1-8.55-1.19A28.33,28.33,0,0,1,14,90.84,30.55,30.55,0,0,1,3.69,79.49,32,32,0,0,1,0,64.26H20.79a9.34,9.34,0,0,0,1.59,5.83,11.66,11.66,0,0,0,2.83,2.82A9.12,9.12,0,0,0,30,74.54a10.73,10.73,0,0,0,5.05-1,8.16,8.16,0,0,0,2.76-1.88,10.15,10.15,0,0,0,1.6-2.2,6,6,0,0,0,.68-2.07,11.13,11.13,0,0,0,0-3.26A6.47,6.47,0,0,0,39.42,62a8.39,8.39,0,0,0-1.6-2.19,10.7,10.7,0,0,0-2.76-2,26.79,26.79,0,0,0-2.9-1.13c-1-.33-2.11-.71-3.26-1.13-2-.66-4.18-1.42-6.39-2.25A35.29,35.29,0,0,1,15.86,50a26,26,0,0,1-7.25-6.9,27.48,27.48,0,0,1-4.25-8.9,28.43,28.43,0,0,1-.86-9.85A26.43,26.43,0,0,1,6.27,14.6,27.65,27.65,0,0,1,11.8,7.2a26.84,26.84,0,0,1,7.39-5A26.35,26.35,0,0,1,27.92.08,28.49,28.49,0,0,1,37.39,1a27,27,0,0,1,15,9.46,25.83,25.83,0,0,1,4.22,7.72A27,27,0,0,1,58.08,27H37.39c0-1.92-.59-3.26-1.78-4a12.63,12.63,0,0,0-3.14-1.51,6.79,6.79,0,0,1-1.17-.19,6.11,6.11,0,0,0-2.09,0,7.62,7.62,0,0,0-2.4.88,4.9,4.9,0,0,0-2,2.2,5.72,5.72,0,0,0-.36,4.2,6,6,0,0,0,2.46,3.45,26.08,26.08,0,0,0,3.81,1.82c1.39.54,2.87,1.06,4.43,1.56,1.39.42,2.8.88,4.24,1.38s2.88,1.09,4.35,1.76a29.31,29.31,0,0,1,12.66,11,30.63,30.63,0,0,1,0,32.23A30.44,30.44,0,0,1,37.27,95.08,32.15,32.15,0,0,1,30.63,95.73Z"/><path class="cls-1" d="M128.52,93.85a45.23,45.23,0,0,1-17-3.32,43.2,43.2,0,0,1-15-10.1,47.39,47.39,0,0,1-9.74-50.35,45.66,45.66,0,0,1,9.74-14.86,44.39,44.39,0,0,1,15-10.16,45.29,45.29,0,0,1,17-3.38,44.47,44.47,0,0,1,32,13.54L145.88,30.15a23.46,23.46,0,0,0-8.12-5.46,24.71,24.71,0,0,0-9.22-1.82,24.46,24.46,0,0,0-9.17,1.82,23.55,23.55,0,0,0-8.05,5.46A26.13,26.13,0,0,0,106,38.3a25.15,25.15,0,0,0-1.85,9.53A24.4,24.4,0,0,0,106,57.3a26.22,26.22,0,0,0,5.29,8.09,23.48,23.48,0,0,0,8.05,5.45,24.07,24.07,0,0,0,9.17,1.82,24.71,24.71,0,0,0,9.22-1.82,23.29,23.29,0,0,0,8.12-5.45l14.64,15a43.37,43.37,0,0,1-14.88,10.1A45.26,45.26,0,0,1,128.52,93.85Z"/><path class="cls-1" d="M207.16,94H186.37V1.8h20.79Z"/><path class="cls-1" d="M290.93,1.55v21.2H273.58V94H252.79V22.75H235.57V1.55Z"/><path class="cls-1" d="M371.14,94l-3.57-11.16H339.15L335.46,94h-22l30.76-92H363.9L393.05,94ZM346.29,61.62h14.64L353.79,39.3Z"/><g class="cls-2"><path class="cls-1" d="M242.73,118.67a3.2,3.2,0,0,1-1.21,2.63,5.21,5.21,0,0,1-3.34,1,8,8,0,0,1-3.49-.74v-2.43a15.88,15.88,0,0,0,2.11.79,6.36,6.36,0,0,0,1.58.22,2.29,2.29,0,0,0,1.32-.32,1.12,1.12,0,0,0,.46-1,1.07,1.07,0,0,0-.2-.65,2.24,2.24,0,0,0-.59-.54c-.26-.17-.8-.45-1.6-.84a7.54,7.54,0,0,1-1.69-1,4,4,0,0,1-.91-1.14,3.34,3.34,0,0,1-.33-1.52,3.18,3.18,0,0,1,1.11-2.57,4.6,4.6,0,0,1,3.06-.93,7.28,7.28,0,0,1,1.83.22,13.4,13.4,0,0,1,1.83.64l-.85,2a12.26,12.26,0,0,0-1.63-.56,5.08,5.08,0,0,0-1.27-.16,1.66,1.66,0,0,0-1.13.34,1.16,1.16,0,0,0-.4.91,1.08,1.08,0,0,0,.16.6,1.87,1.87,0,0,0,.51.5,17,17,0,0,0,1.66.86,6.41,6.41,0,0,1,2.36,1.66A3.2,3.2,0,0,1,242.73,118.67Z"/><path class="cls-1" d="M246.7,110.24c0-.84.47-1.26,1.4-1.26s1.4.42,1.4,1.26a1.26,1.26,0,0,1-.35.93,1.47,1.47,0,0,1-1.05.33C247.17,111.5,246.7,111.08,246.7,110.24Zm2.68,11.85h-2.57v-9.42h2.57Z"/><path class="cls-1" d="M262.57,122.09H260v-5.5a2.84,2.84,0,0,0-.34-1.53,1.21,1.21,0,0,0-1.08-.51,1.55,1.55,0,0,0-1.43.72,4.75,4.75,0,0,0-.45,2.39v4.43h-2.57v-9.42h2l.34,1.21h.14a2.59,2.59,0,0,1,1.1-1,3.63,3.63,0,0,1,1.64-.37,3,3,0,0,1,2.87,1.39h.23a2.5,2.5,0,0,1,1.11-1,3.63,3.63,0,0,1,1.67-.37,3.29,3.29,0,0,1,2.42.83,3.57,3.57,0,0,1,.82,2.63v6.14h-2.58v-5.5a2.75,2.75,0,0,0-.34-1.53,1.19,1.19,0,0,0-1.07-.51,1.59,1.59,0,0,0-1.41.67,3.79,3.79,0,0,0-.47,2.15Z"/><path class="cls-1" d="M278.31,122.26a3.14,3.14,0,0,1-2.61-1.2h-.13c.09.78.13,1.24.13,1.36v3.82h-2.57V112.67h2.09l.37,1.22h.11a3,3,0,0,1,2.68-1.4,3.06,3.06,0,0,1,2.61,1.29,6,6,0,0,1,.94,3.59,7.23,7.23,0,0,1-.44,2.62,3.76,3.76,0,0,1-1.26,1.69A3.23,3.23,0,0,1,278.31,122.26Zm-.76-7.71a1.62,1.62,0,0,0-1.39.59,3.43,3.43,0,0,0-.46,1.93v.28a4,4,0,0,0,.45,2.17,1.62,1.62,0,0,0,1.43.66c1.16,0,1.73-1,1.73-2.85a4.07,4.07,0,0,0-.42-2.08A1.45,1.45,0,0,0,277.55,114.55Z"/><path class="cls-1" d="M288.68,122.09h-2.57V109h2.57Z"/><path class="cls-1" d="M292.08,112.67h2.82l1.78,5.3a7.72,7.72,0,0,1,.31,1.64H297a7.13,7.13,0,0,1,.36-1.64l1.75-5.3h2.75l-4,10.63a4.57,4.57,0,0,1-1.56,2.21,3.94,3.94,0,0,1-2.37.73,6.33,6.33,0,0,1-1.31-.14v-2a4.6,4.6,0,0,0,1,.11,1.83,1.83,0,0,0,1.2-.42,2.71,2.71,0,0,0,.79-1.26l.15-.46Z"/><path class="cls-1" d="M319.07,109.77h2.64l-4.19,12.32h-2.85l-4.18-12.32h2.64l2.32,7.33c.13.44.26.94.4,1.52s.22,1,.25,1.2a23.9,23.9,0,0,1,.64-2.72Z"/><path class="cls-1" d="M329.38,122.26a4.89,4.89,0,0,1-3.56-1.25,4.79,4.79,0,0,1-1.28-3.56,5.21,5.21,0,0,1,1.18-3.66,4.23,4.23,0,0,1,3.28-1.3,4.15,4.15,0,0,1,3.11,1.14,4.32,4.32,0,0,1,1.11,3.14V118h-6.08a2.5,2.5,0,0,0,.65,1.71,2.29,2.29,0,0,0,1.7.62,6.91,6.91,0,0,0,1.61-.18,8,8,0,0,0,1.59-.56v2a6.29,6.29,0,0,1-1.44.5A9.11,9.11,0,0,1,329.38,122.26Zm-.37-7.94a1.66,1.66,0,0,0-1.28.52,2.44,2.44,0,0,0-.53,1.47h3.61a2.15,2.15,0,0,0-.5-1.47A1.7,1.7,0,0,0,329,114.32Z"/><path class="cls-1" d="M342.62,112.49a4.16,4.16,0,0,1,.87.08L343.3,115a2.81,2.81,0,0,0-.76-.08,2.74,2.74,0,0,0-1.92.63,2.28,2.28,0,0,0-.69,1.77v4.79h-2.57v-9.42h1.95l.38,1.59h.13A3.46,3.46,0,0,1,341,113,3,3,0,0,1,342.62,112.49Z"/><path class="cls-1" d="M353.83,119.3a2.59,2.59,0,0,1-1,2.2,4.93,4.93,0,0,1-3,.76,8.78,8.78,0,0,1-1.75-.14,6.34,6.34,0,0,1-1.36-.41v-2.12a9.18,9.18,0,0,0,1.61.56,6.2,6.2,0,0,0,1.58.23c.94,0,1.4-.27,1.4-.81a.69.69,0,0,0-.18-.49,2.78,2.78,0,0,0-.64-.43c-.31-.16-.71-.35-1.22-.56a7.45,7.45,0,0,1-1.59-.84,2.5,2.5,0,0,1-.75-.89,3,3,0,0,1-.23-1.24,2.25,2.25,0,0,1,1-1.94,4.69,4.69,0,0,1,2.76-.69,7.79,7.79,0,0,1,3.31.75l-.78,1.85c-.47-.2-.91-.37-1.32-.5a4.14,4.14,0,0,0-1.26-.19c-.76,0-1.13.2-1.13.61a.73.73,0,0,0,.36.6,9.89,9.89,0,0,0,1.61.75,7.82,7.82,0,0,1,1.62.84,2.42,2.42,0,0,1,.75.89A2.67,2.67,0,0,1,353.83,119.3Z"/><path class="cls-1" d="M363.87,122.09l-.49-1.28h-.07A3.84,3.84,0,0,1,362,122a4.33,4.33,0,0,1-1.79.31,2.94,2.94,0,0,1-2.14-.77,3,3,0,0,1-.78-2.21,2.48,2.48,0,0,1,1.05-2.21,6,6,0,0,1,3.17-.79l1.63,0v-.42a1.28,1.28,0,0,0-1.46-1.43,6.77,6.77,0,0,0-2.66.68l-.85-1.73a7.66,7.66,0,0,1,3.61-.85,4.52,4.52,0,0,1,2.91.82,3.07,3.07,0,0,1,1,2.51v6.28Zm-.76-4.36-1,0a3.14,3.14,0,0,0-1.67.41,1.27,1.27,0,0,0-.55,1.13c0,.72.42,1.08,1.25,1.08a2,2,0,0,0,1.43-.51,1.79,1.79,0,0,0,.53-1.37Z"/><path class="cls-1" d="M374.34,120.21a5.45,5.45,0,0,0,1.62-.29v1.91a5.75,5.75,0,0,1-2.36.43,2.9,2.9,0,0,1-2.25-.78,3.39,3.39,0,0,1-.7-2.34V114.6h-1.23v-1.09l1.41-.86.74-2h1.65v2h2.63v1.93h-2.63v4.54a1,1,0,0,0,.3.81A1.21,1.21,0,0,0,374.34,120.21Z"/><path class="cls-1" d="M379.8,110.24c0-.84.47-1.26,1.4-1.26s1.4.42,1.4,1.26a1.22,1.22,0,0,1-.35.93,1.47,1.47,0,0,1-1.05.33C380.27,111.5,379.8,111.08,379.8,110.24Zm2.68,11.85h-2.57v-9.42h2.57Z"/><path class="cls-1" d="M389.81,122.09h-2.57V109h2.57Z"/><path class="cls-1" d="M398.82,122.26a4.9,4.9,0,0,1-3.56-1.25,4.79,4.79,0,0,1-1.28-3.56,5.22,5.22,0,0,1,1.19-3.66,4.23,4.23,0,0,1,3.27-1.3,4.15,4.15,0,0,1,3.11,1.14,4.32,4.32,0,0,1,1.11,3.14V118h-6.07a2.46,2.46,0,0,0,.65,1.71,2.27,2.27,0,0,0,1.7.62,7,7,0,0,0,1.61-.18,8.13,8.13,0,0,0,1.58-.56v2a6.29,6.29,0,0,1-1.44.5A9,9,0,0,1,398.82,122.26Zm-.36-7.94a1.64,1.64,0,0,0-1.28.52,2.38,2.38,0,0,0-.53,1.47h3.6a2.15,2.15,0,0,0-.49-1.47A1.72,1.72,0,0,0,398.46,114.32Z"/></g><line class="cls-3" x1="219.42" y1="117.22" x2="0.4" y2="117.22"/></g></g></svg>