<svg width="32" height="32" xmlns="http://www.w3.org/2000/svg">

 <title/>
 <g>
  <title>background</title>
  <rect fill="none" id="canvas_background" height="402" width="582" y="-1" x="-1"/>
 </g>
 <g>
  <title>Layer 1</title>
  <path fill="#ffffff" id="svg_1" d="m3,9l26,0a2,2 0 0 0 0,-4l-26,0a2,2 0 0 0 0,4z" class="cls-1"/>
  <path fill="#ffffff" id="svg_2" d="m29,14l-26,0a2,2 0 0 0 0,4l26,0a2,2 0 0 0 0,-4z" class="cls-1"/>
  <path fill="#ffffff" id="svg_3" d="m29,23l-26,0a2,2 0 0 0 0,4l26,0a2,2 0 0 0 0,-4z" class="cls-1"/>
 </g>
</svg>