<svg xmlns="http://www.w3.org/2000/svg" viewBox="0 0 402.66 126.28"><defs><style>.cls-1{fill:#fff;}.cls-2{isolation:isolate;}.cls-3{fill:none;stroke:#fff;stroke-miterlimit:10;stroke-width:1.06px;}</style></defs><title>Asset 4</title><g id="Layer_2" data-name="Layer 2"><g id="Layer_1-2" data-name="Layer 1"><path class="cls-1" d="M30.63,95.78a31.29,31.29,0,0,1-8.55-1.19A28.89,28.89,0,0,1,14,90.89,30.5,30.5,0,0,1,3.69,79.53,32.07,32.07,0,0,1,0,64.29H20.79a9.34,9.34,0,0,0,1.59,5.83,11.66,11.66,0,0,0,2.83,2.82A9.12,9.12,0,0,0,30,74.57a10.65,10.65,0,0,0,5-1,8.16,8.16,0,0,0,2.76-1.88,9.69,9.69,0,0,0,1.6-2.2,6,6,0,0,0,.68-2.07,14.71,14.71,0,0,0,.12-1.63,14.89,14.89,0,0,0-.12-1.63A6.47,6.47,0,0,0,39.37,62a8.39,8.39,0,0,0-1.6-2.19,10.7,10.7,0,0,0-2.76-2c-.94-.42-1.91-.8-2.9-1.13s-2.11-.7-3.26-1.12c-2.05-.66-4.18-1.42-6.39-2.26A34.63,34.63,0,0,1,15.82,50,26.18,26.18,0,0,1,8.56,43.1a27.63,27.63,0,0,1-4.25-8.91,28.37,28.37,0,0,1-.86-9.84,26.48,26.48,0,0,1,2.77-9.72,27.69,27.69,0,0,1,5.54-7.4A26.07,26.07,0,0,1,27.87.08,28.49,28.49,0,0,1,37.34,1a27,27,0,0,1,15,9.47,25.66,25.66,0,0,1,4.22,7.71A27,27,0,0,1,58,27H37.39c0-1.92-.59-3.26-1.78-4a13,13,0,0,0-3.14-1.51,7.89,7.89,0,0,1-1.17-.18,5.65,5.65,0,0,0-2.09,0,7.6,7.6,0,0,0-2.4.87,5,5,0,0,0-2,2.2,5.67,5.67,0,0,0-.37,4.2,6,6,0,0,0,2.46,3.45,26.08,26.08,0,0,0,3.81,1.82q2.09.81,4.43,1.57c1.39.41,2.8.87,4.24,1.37s2.88,1.09,4.35,1.76a29.19,29.19,0,0,1,12.66,11,30.63,30.63,0,0,1,0,32.23,29.13,29.13,0,0,1-12.66,11,28.63,28.63,0,0,1-6.5,2.2A31.88,31.88,0,0,1,30.63,95.78Z"/><path class="cls-1" d="M128.57,93.9a45.24,45.24,0,0,1-17-3.33,43.13,43.13,0,0,1-15-10,47,47,0,0,1-9.78-15,47.9,47.9,0,0,1,0-35.36,45.71,45.71,0,0,1,9.78-14.91,44.13,44.13,0,0,1,15-10.15,45.1,45.1,0,0,1,17-3.39,44.55,44.55,0,0,1,32,13.54L145.93,30.19a23.46,23.46,0,0,0-8.12-5.46,24.71,24.71,0,0,0-9.22-1.82,24.46,24.46,0,0,0-9.17,1.82,23.74,23.74,0,0,0-8,5.46,26.13,26.13,0,0,0-5.29,8.15,25.15,25.15,0,0,0-1.85,9.53,24.4,24.4,0,0,0,1.85,9.47,26.22,26.22,0,0,0,5.29,8.09,23.57,23.57,0,0,0,8,5.45,24.07,24.07,0,0,0,9.17,1.82,24.32,24.32,0,0,0,9.22-1.82,23.29,23.29,0,0,0,8.12-5.45l14.64,15.1a43.36,43.36,0,0,1-14.92,10A45.06,45.06,0,0,1,128.57,93.9Z"/><path class="cls-1" d="M207.16,94H186.37V1.85h20.79Z"/><path class="cls-1" d="M290.93,1.6V22.79H273.57V94h-20.8V22.79h-17.2V1.6Z"/><path class="cls-1" d="M371.14,94l-3.57-11.16H339.15L335.46,94h-22L344.22,2H363.9L393.05,94ZM346.29,61.67h14.64l-7.14-22.33Z"/><g class="cls-2"><path class="cls-1" d="M242.72,118.71a3.19,3.19,0,0,1-1.2,2.63,5.21,5.21,0,0,1-3.34,1,8,8,0,0,1-3.49-.74v-2.43a15.88,15.88,0,0,0,2.11.79,6.37,6.37,0,0,0,1.59.22,2.28,2.28,0,0,0,1.31-.32,1.12,1.12,0,0,0,.46-1,1.07,1.07,0,0,0-.2-.65,2.24,2.24,0,0,0-.59-.54c-.26-.17-.8-.45-1.6-.84a7.54,7.54,0,0,1-1.69-1,4,4,0,0,1-.91-1.14,3.34,3.34,0,0,1-.33-1.52,3.18,3.18,0,0,1,1.11-2.57,4.61,4.61,0,0,1,3.06-.94,7.28,7.28,0,0,1,1.83.23,13.4,13.4,0,0,1,1.83.64l-.85,2a12.26,12.26,0,0,0-1.63-.56,5.08,5.08,0,0,0-1.27-.16,1.66,1.66,0,0,0-1.13.34,1.14,1.14,0,0,0-.4.91,1.08,1.08,0,0,0,.16.6,1.87,1.87,0,0,0,.51.5,17,17,0,0,0,1.66.86,6.41,6.41,0,0,1,2.36,1.66A3.2,3.2,0,0,1,242.72,118.71Z"/><path class="cls-1" d="M246.7,110.28c0-.84.47-1.26,1.4-1.26s1.4.42,1.4,1.26a1.26,1.26,0,0,1-.35.93,1.47,1.47,0,0,1-1.05.33C247.17,111.54,246.7,111.12,246.7,110.28Zm2.68,11.85h-2.57v-9.42h2.57Z"/><path class="cls-1" d="M262.57,122.13H260v-5.5a2.84,2.84,0,0,0-.34-1.53,1.21,1.21,0,0,0-1.08-.51,1.55,1.55,0,0,0-1.43.72,4.75,4.75,0,0,0-.45,2.39v4.43h-2.57v-9.42h2l.34,1.21h.14a2.59,2.59,0,0,1,1.1-1,3.63,3.63,0,0,1,1.64-.37,3,3,0,0,1,2.87,1.39h.23a2.5,2.5,0,0,1,1.11-1,3.63,3.63,0,0,1,1.67-.37,3.29,3.29,0,0,1,2.42.83,3.57,3.57,0,0,1,.82,2.63v6.14h-2.58v-5.5a2.75,2.75,0,0,0-.34-1.53,1.19,1.19,0,0,0-1.07-.51,1.59,1.59,0,0,0-1.41.67,3.79,3.79,0,0,0-.47,2.15Z"/><path class="cls-1" d="M278.31,122.3a3.14,3.14,0,0,1-2.61-1.2h-.13c.09.78.13,1.24.13,1.36v3.82h-2.57V112.71h2.09l.37,1.22h.11a3,3,0,0,1,2.68-1.4,3.06,3.06,0,0,1,2.61,1.29,6,6,0,0,1,.94,3.59,7.23,7.23,0,0,1-.44,2.62,3.76,3.76,0,0,1-1.26,1.69A3.23,3.23,0,0,1,278.31,122.3Zm-.76-7.71a1.62,1.62,0,0,0-1.39.59,3.43,3.43,0,0,0-.46,1.93v.28a4,4,0,0,0,.45,2.17,1.62,1.62,0,0,0,1.43.66c1.16,0,1.73-1,1.73-2.85a4.07,4.07,0,0,0-.42-2.08A1.45,1.45,0,0,0,277.55,114.59Z"/><path class="cls-1" d="M288.68,122.13h-2.57V109h2.57Z"/><path class="cls-1" d="M292.08,112.71h2.82l1.78,5.3a7.72,7.72,0,0,1,.31,1.64H297a7.13,7.13,0,0,1,.36-1.64l1.74-5.3h2.76l-4,10.63a4.57,4.57,0,0,1-1.56,2.21,3.94,3.94,0,0,1-2.37.73,6.33,6.33,0,0,1-1.31-.14v-2a4.6,4.6,0,0,0,1,.11,1.83,1.83,0,0,0,1.2-.42,2.71,2.71,0,0,0,.79-1.26l.15-.46Z"/><path class="cls-1" d="M319.07,109.81h2.64l-4.19,12.32h-2.85l-4.18-12.32h2.64l2.32,7.33c.13.44.26.94.4,1.52s.22,1,.25,1.2a23.9,23.9,0,0,1,.64-2.72Z"/><path class="cls-1" d="M329.38,122.3a4.89,4.89,0,0,1-3.56-1.25,4.79,4.79,0,0,1-1.28-3.56,5.21,5.21,0,0,1,1.18-3.66,4.23,4.23,0,0,1,3.28-1.3,4.15,4.15,0,0,1,3.11,1.14,4.32,4.32,0,0,1,1.11,3.14v1.25h-6.08a2.5,2.5,0,0,0,.65,1.71,2.29,2.29,0,0,0,1.7.62,6.91,6.91,0,0,0,1.61-.18,8,8,0,0,0,1.59-.56v2a6.29,6.29,0,0,1-1.44.5A9.11,9.11,0,0,1,329.38,122.3Zm-.37-7.94a1.66,1.66,0,0,0-1.28.52,2.44,2.44,0,0,0-.53,1.47h3.61a2.15,2.15,0,0,0-.5-1.47A1.7,1.7,0,0,0,329,114.36Z"/><path class="cls-1" d="M342.62,112.53a4.16,4.16,0,0,1,.87.08L343.3,115a2.81,2.81,0,0,0-.76-.08,2.74,2.74,0,0,0-1.92.63,2.28,2.28,0,0,0-.69,1.77v4.79h-2.57v-9.42h1.95l.38,1.59h.13A3.46,3.46,0,0,1,341,113,3,3,0,0,1,342.62,112.53Z"/><path class="cls-1" d="M353.83,119.34a2.59,2.59,0,0,1-1,2.2,4.93,4.93,0,0,1-3,.76,8.78,8.78,0,0,1-1.75-.14,6.34,6.34,0,0,1-1.36-.41v-2.12a9.18,9.18,0,0,0,1.61.56,6.2,6.2,0,0,0,1.58.23c.94,0,1.4-.27,1.4-.81a.69.69,0,0,0-.18-.49,2.78,2.78,0,0,0-.64-.43c-.31-.16-.71-.35-1.22-.56a7.45,7.45,0,0,1-1.59-.84,2.5,2.5,0,0,1-.75-.89,3,3,0,0,1-.23-1.24,2.25,2.25,0,0,1,1-1.94,4.69,4.69,0,0,1,2.76-.69,7.79,7.79,0,0,1,3.31.75l-.78,1.85c-.47-.2-.91-.37-1.32-.5a4.14,4.14,0,0,0-1.26-.19c-.76,0-1.13.2-1.13.61a.73.73,0,0,0,.36.6,9.89,9.89,0,0,0,1.61.75,7.82,7.82,0,0,1,1.62.84,2.42,2.42,0,0,1,.75.89A2.67,2.67,0,0,1,353.83,119.34Z"/><path class="cls-1" d="M363.87,122.13l-.49-1.28h-.07A3.84,3.84,0,0,1,362,122a4.33,4.33,0,0,1-1.79.31,2.94,2.94,0,0,1-2.14-.77,3,3,0,0,1-.78-2.21,2.48,2.48,0,0,1,1.05-2.21,6,6,0,0,1,3.17-.79l1.63,0v-.42a1.28,1.28,0,0,0-1.46-1.43,6.77,6.77,0,0,0-2.66.68l-.85-1.73a7.66,7.66,0,0,1,3.61-.85,4.52,4.52,0,0,1,2.91.82,3.07,3.07,0,0,1,1,2.51v6.28Zm-.76-4.36-1,0a3.14,3.14,0,0,0-1.67.41,1.27,1.27,0,0,0-.55,1.13c0,.72.42,1.08,1.25,1.08a2,2,0,0,0,1.43-.51,1.83,1.83,0,0,0,.53-1.37Z"/><path class="cls-1" d="M374.34,120.25A5.45,5.45,0,0,0,376,120v1.91a5.75,5.75,0,0,1-2.36.43,2.9,2.9,0,0,1-2.25-.78,3.39,3.39,0,0,1-.7-2.34v-4.54h-1.23v-1.09l1.41-.86.74-2h1.65v2h2.63v1.93h-2.63v4.54a1,1,0,0,0,.3.81A1.21,1.21,0,0,0,374.34,120.25Z"/><path class="cls-1" d="M379.8,110.28c0-.84.47-1.26,1.4-1.26s1.4.42,1.4,1.26a1.22,1.22,0,0,1-.35.93,1.47,1.47,0,0,1-1.05.33C380.27,111.54,379.8,111.12,379.8,110.28Zm2.68,11.85h-2.57v-9.42h2.57Z"/><path class="cls-1" d="M389.81,122.13h-2.57V109h2.57Z"/><path class="cls-1" d="M398.82,122.3a4.9,4.9,0,0,1-3.56-1.25,4.79,4.79,0,0,1-1.28-3.56,5.22,5.22,0,0,1,1.19-3.66,4.23,4.23,0,0,1,3.27-1.3,4.15,4.15,0,0,1,3.11,1.14,4.32,4.32,0,0,1,1.11,3.14v1.25h-6.07a2.46,2.46,0,0,0,.65,1.71,2.27,2.27,0,0,0,1.7.62,7,7,0,0,0,1.61-.18,8.13,8.13,0,0,0,1.58-.56v2a6.29,6.29,0,0,1-1.44.5A9,9,0,0,1,398.82,122.3Zm-.36-7.94a1.64,1.64,0,0,0-1.28.52,2.38,2.38,0,0,0-.53,1.47h3.6a2.15,2.15,0,0,0-.49-1.47A1.72,1.72,0,0,0,398.46,114.36Z"/></g><line class="cls-3" x1="219.42" y1="117.26" x2="0.4" y2="117.26"/></g></g></svg>